<svg width="223" height="195" viewBox="0 0 223 195" fill="none" xmlns="http://www.w3.org/2000/svg">
<ellipse cx="111.5" cy="97.5" rx="111.5" ry="97.5" fill="white"/>
<path d="M99.1225 80C101.945 76.584 106.218 74.4 111 74.4C115.782 74.4 120.055 76.584 122.878 80C124.736 82.2529 125.915 84.9878 126.278 87.8856C126.641 90.7833 126.172 93.7245 124.927 96.3661C123.681 99.0076 121.711 101.241 119.244 102.804C116.778 104.368 113.918 105.199 110.997 105.199C108.077 105.199 105.217 104.368 102.75 102.804C100.284 101.241 98.3132 99.0076 97.0678 96.3661C95.8224 93.7245 95.3538 90.7833 95.7166 87.8856C96.0794 84.9878 97.2587 82.2529 99.1169 80H99.1225ZM132 89.8C132 86.2608 131.126 82.9232 129.581 80H153C155.228 80 157.364 80.885 158.94 82.4603C160.515 84.0356 161.4 86.1722 161.4 88.4V91.2C161.4 100.087 154.646 109.187 142.836 112.39C141.622 110.21 139.848 108.394 137.697 107.13C135.545 105.866 133.095 105.199 130.6 105.2H125.28C127.403 103.236 129.096 100.854 130.252 98.2034C131.409 95.553 132.004 92.6918 132 89.8ZM130.6 110.8C131.704 110.797 132.798 111.012 133.818 111.433C134.839 111.854 135.766 112.473 136.546 113.254C137.327 114.034 137.946 114.961 138.367 115.982C138.788 117.002 139.003 118.096 139 119.2V122C139 133.038 128.584 144.4 111 144.4C93.4161 144.4 83.0001 133.038 83.0001 122V119.2C82.9971 118.096 83.2124 117.002 83.6335 115.982C84.0546 114.961 84.6732 114.034 85.4538 113.254C86.2344 112.473 87.1616 111.854 88.1821 111.433C89.2025 111.012 90.2962 110.797 91.4001 110.8H130.6ZM60.6001 91.2C60.6001 100.087 67.3537 109.187 79.1641 112.39C80.3778 110.21 82.1521 108.394 84.3034 107.13C86.4547 105.866 88.9048 105.199 91.4001 105.2H96.7201C94.5975 103.236 92.9046 100.854 91.7481 98.2034C90.5915 95.553 89.9964 92.6918 90.0001 89.8C90.0001 86.2608 90.8737 82.9232 92.4249 80H69.0001C66.7723 80 64.6357 80.885 63.0604 82.4603C61.4851 84.0356 60.6001 86.1722 60.6001 88.4V91.2ZM104 59C104 54.9156 102.378 50.9986 99.4895 48.1105C96.6015 45.2225 92.6844 43.6 88.6001 43.6C84.5158 43.6 80.5987 45.2225 77.7107 48.1105C74.8226 50.9986 73.2001 54.9156 73.2001 59C73.2001 63.0843 74.8226 67.0014 77.7107 69.8894C80.5987 72.7775 84.5158 74.4 88.6001 74.4C92.6844 74.4 96.6015 72.7775 99.4895 69.8894C102.378 67.0014 104 63.0843 104 59V59ZM148.8 59C148.8 54.9156 147.178 50.9986 144.29 48.1105C141.401 45.2225 137.484 43.6 133.4 43.6C129.316 43.6 125.399 45.2225 122.511 48.1105C119.623 50.9986 118 54.9156 118 59C118 63.0843 119.623 67.0014 122.511 69.8894C125.399 72.7775 129.316 74.4 133.4 74.4C137.484 74.4 141.401 72.7775 144.29 69.8894C147.178 67.0014 148.8 63.0843 148.8 59V59Z" fill="#FAE273"/>
</svg>
