<svg width="223" height="195" viewBox="0 0 223 195" fill="none" xmlns="http://www.w3.org/2000/svg">
<ellipse cx="111.5" cy="97.5" rx="111.5" ry="97.5" fill="white"/>
<path d="M67.25 63C67.25 59.519 68.6328 56.1806 71.0942 53.7192C73.5556 51.2578 76.894 49.875 80.375 49.875H150.375C153.856 49.875 157.194 51.2578 159.656 53.7192C162.117 56.1806 163.5 59.519 163.5 63V106.75C163.5 110.231 162.117 113.569 159.656 116.031C157.194 118.492 153.856 119.875 150.375 119.875H115.375V84.875C115.375 79.0734 113.07 73.5094 108.968 69.407C104.866 65.3047 99.3016 63 93.5 63H71.625C70.1112 63 68.65 63.1925 67.25 63.5513V63ZM167.875 137.375H115.375V128.625H167.875C169.035 128.625 170.148 129.086 170.969 129.906C171.789 130.727 172.25 131.84 172.25 133C172.25 134.16 171.789 135.273 170.969 136.094C170.148 136.914 169.035 137.375 167.875 137.375ZM67.25 71.75C63.769 71.75 60.4306 73.1328 57.9692 75.5942C55.5078 78.0556 54.125 81.394 54.125 84.875V137.375C54.125 140.856 55.5078 144.194 57.9692 146.656C60.4306 149.117 63.769 150.5 67.25 150.5H93.5C96.981 150.5 100.319 149.117 102.781 146.656C105.242 144.194 106.625 140.856 106.625 137.375V84.875C106.625 81.394 105.242 78.0556 102.781 75.5942C100.319 73.1328 96.981 71.75 93.5 71.75H67.25ZM80.375 137.375C79.2147 137.375 78.1019 136.914 77.2814 136.094C76.4609 135.273 76 134.16 76 133C76 131.84 76.4609 130.727 77.2814 129.906C78.1019 129.086 79.2147 128.625 80.375 128.625C81.5353 128.625 82.6481 129.086 83.4686 129.906C84.2891 130.727 84.75 131.84 84.75 133C84.75 134.16 84.2891 135.273 83.4686 136.094C82.6481 136.914 81.5353 137.375 80.375 137.375Z" fill="#FAE273"/>
</svg>
