<svg width="207" height="49" viewBox="0 0 207 49" fill="none" xmlns="http://www.w3.org/2000/svg">
<path d="M13.2415 25.1112H4.16639V20.5036H13.2415C14.8218 20.5036 16.0989 20.2566 17.0726 19.7627C18.0464 19.2687 18.7568 18.5895 19.2037 17.7251C19.6667 16.8453 19.8981 15.8419 19.8981 14.7151C19.8981 13.65 19.6667 12.6544 19.2037 11.7282C18.7568 10.7866 18.0464 10.0302 17.0726 9.45911C16.0989 8.88798 14.8218 8.60241 13.2415 8.60241H6.01014V37.6839H0V3.9716H13.2415C15.9392 3.9716 18.23 4.43468 20.1136 5.36085C22.0132 6.27157 23.4579 7.53733 24.4476 9.15811C25.4373 10.7635 25.9322 12.6003 25.9322 14.6688C25.9322 16.8453 25.4373 18.713 24.4476 20.2721C23.4579 21.8311 22.0132 23.0274 20.1136 23.8609C18.23 24.6945 15.9392 25.1112 13.2415 25.1112Z" fill="black"/>
<path d="M45.0641 32.6595V20.712C45.0641 19.8167 44.8965 19.0449 44.5612 18.3966C44.226 17.7483 43.7152 17.2466 43.0288 16.8916C42.3583 16.5365 41.5123 16.359 40.4906 16.359C39.5488 16.359 38.7347 16.5134 38.0483 16.8221C37.3619 17.1308 36.8271 17.5476 36.444 18.0724C36.0608 18.5972 35.8693 19.1915 35.8693 19.8553H30.1225C30.1225 18.8674 30.37 17.9103 30.8648 16.9842C31.3597 16.058 32.078 15.2322 33.0199 14.5067C33.9617 13.7812 35.0871 13.2101 36.3961 12.7933C37.7051 12.3765 39.1737 12.1681 40.8019 12.1681C42.7494 12.1681 44.4734 12.4846 45.974 13.1175C47.4905 13.7503 48.6798 14.7074 49.5418 15.9886C50.4197 17.2543 50.8587 18.8442 50.8587 20.7583V31.8954C50.8587 33.0377 50.9385 34.0641 51.0982 34.9749C51.2738 35.8702 51.5212 36.6497 51.8405 37.3134V37.6839H45.9261C45.6547 37.0819 45.4392 36.3178 45.2796 35.3916C45.1359 34.4501 45.0641 33.5393 45.0641 32.6595ZM45.9022 22.4485L45.95 25.8985H41.8076C40.7381 25.8985 39.7962 25.9988 38.9821 26.1995C38.168 26.3847 37.4896 26.6626 36.9468 27.033C36.4041 27.4035 35.997 27.8511 35.7256 28.376C35.4542 28.9008 35.3186 29.4951 35.3186 30.1588C35.3186 30.8226 35.4782 31.4323 35.7975 31.988C36.1167 32.5283 36.5797 32.9528 37.1863 33.2615C37.8088 33.5702 38.5591 33.7246 39.4371 33.7246C40.6183 33.7246 41.648 33.493 42.5259 33.0299C43.4199 32.5514 44.1223 31.9726 44.6331 31.2934C45.1439 30.5988 45.4153 29.9427 45.4472 29.3253L47.3149 31.8028C47.1233 32.4356 46.7961 33.1148 46.3332 33.8403C45.8702 34.5658 45.2636 35.2604 44.5134 35.9242C43.7791 36.5725 42.8931 37.105 41.8555 37.5218C40.8338 37.9386 39.6526 38.147 38.3117 38.147C36.6196 38.147 35.111 37.8228 33.7861 37.1745C32.4612 36.5108 31.4235 35.6232 30.6733 34.5118C29.923 33.385 29.5479 32.1115 29.5479 30.6914C29.5479 29.3639 29.8033 28.1907 30.3141 27.172C30.8409 26.1377 31.6071 25.2733 32.6128 24.5787C33.6344 23.8841 34.8796 23.3593 36.3482 23.0042C37.8168 22.6338 39.4929 22.4485 41.3766 22.4485H45.9022Z" fill="black"/>
<path d="M72.6964 32.4974V2.11928H78.491V37.6839H73.2471L72.6964 32.4974ZM55.8392 25.4354V24.9492C55.8392 23.0505 56.0707 21.3217 56.5336 19.7627C56.9966 18.1882 57.667 16.8375 58.545 15.7107C59.423 14.5684 60.4925 13.6963 61.7536 13.0943C63.0147 12.4769 64.4354 12.1681 66.0158 12.1681C67.5802 12.1681 68.953 12.4614 70.1343 13.048C71.3156 13.6346 72.3212 14.4758 73.1513 15.5718C73.9814 16.6523 74.6439 17.9489 75.1387 19.4617C75.6336 20.959 75.9848 22.626 76.1923 24.4629V26.0143C75.9848 27.8048 75.6336 29.4411 75.1387 30.9229C74.6439 32.4048 73.9814 33.686 73.1513 34.7665C72.3212 35.847 71.3076 36.6806 70.1103 37.2671C68.9291 37.8537 67.5482 38.147 65.9679 38.147C64.4035 38.147 62.9908 37.8305 61.7297 37.1977C60.4845 36.5648 59.423 35.6772 58.545 34.535C57.667 33.3927 56.9966 32.0497 56.5336 30.5061C56.0707 28.9471 55.8392 27.2569 55.8392 25.4354ZM61.6099 24.9492V25.4354C61.6099 26.5777 61.7137 27.6428 61.9212 28.6307C62.1447 29.6186 62.4879 30.4907 62.9508 31.2471C63.4138 31.988 64.0124 32.5746 64.7467 33.0068C65.497 33.4236 66.3909 33.6319 67.4285 33.6319C68.7375 33.6319 69.815 33.3541 70.6611 32.7984C71.5071 32.2427 72.1696 31.4941 72.6485 30.5525C73.1433 29.5954 73.4786 28.5303 73.6542 27.3572V23.1663C73.5584 22.2556 73.3588 21.4066 73.0555 20.6194C72.7682 19.8321 72.3771 19.1452 71.8822 18.5587C71.3874 17.9566 70.7728 17.4936 70.0385 17.1694C69.3202 16.8298 68.4661 16.66 67.4764 16.66C66.4228 16.66 65.5289 16.8761 64.7946 17.3083C64.0603 17.7405 63.4537 18.3348 62.9748 19.0912C62.5119 19.8476 62.1686 20.7274 61.9452 21.7308C61.7217 22.7341 61.6099 23.8069 61.6099 24.9492Z" fill="black"/>
<path d="M95.9468 38.147C94.0312 38.147 92.2992 37.846 90.7507 37.244C89.2183 36.6265 87.9093 35.7698 86.8238 34.6739C85.7543 33.5779 84.9322 32.289 84.3575 30.8071C83.7828 29.3253 83.4955 27.7277 83.4955 26.0143V25.0881C83.4955 23.1277 83.7908 21.3526 84.3814 19.7627C84.9721 18.1728 85.7942 16.8144 86.8477 15.6876C87.9013 14.5453 89.1464 13.6731 90.5831 13.0711C92.0198 12.4691 93.5762 12.1681 95.2524 12.1681C97.1041 12.1681 98.7244 12.4691 100.113 13.0711C101.502 13.6731 102.651 14.5221 103.561 15.6181C104.487 16.6986 105.173 17.9875 105.62 19.4848C106.083 20.9821 106.315 22.6338 106.315 24.4398V26.8246H86.297V22.819H100.616V22.3791C100.584 21.3757 100.377 20.4341 99.9934 19.5543C99.6263 18.6744 99.0596 17.9644 98.2934 17.4241C97.5271 16.8838 96.5055 16.6137 95.2284 16.6137C94.2706 16.6137 93.4166 16.8144 92.6663 17.2157C91.932 17.6016 91.3174 18.165 90.8226 18.906C90.3277 19.6469 89.9446 20.5422 89.6732 21.5918C89.4178 22.626 89.2901 23.7915 89.2901 25.0881V26.0143C89.2901 27.1102 89.4418 28.129 89.7451 29.0706C90.0643 29.9968 90.5273 30.8071 91.1339 31.5018C91.7405 32.1964 92.4748 32.7444 93.3368 33.1457C94.1988 33.5316 95.1805 33.7246 96.282 33.7246C97.6708 33.7246 98.9079 33.4544 99.9934 32.9142C101.079 32.3739 102.021 31.6098 102.819 30.6219L105.86 33.4699C105.301 34.2571 104.575 35.0135 103.681 35.739C102.787 36.449 101.694 37.0279 100.4 37.4755C99.1234 37.9232 97.6389 38.147 95.9468 38.147Z" fill="black"/>
<path d="M116.994 2.11928V37.6839H111.2V2.11928H116.994Z" fill="black"/>
<path d="M131.444 23.0968H120.675V21.259H131.444C133.771 21.259 135.665 20.8782 137.128 20.1166C138.59 19.3384 139.654 18.3036 140.318 17.0122C141 15.7042 141.34 14.2637 141.34 12.6908C141.34 11.0683 141 9.58642 140.318 8.24531C139.654 6.90421 138.59 5.83629 137.128 5.04156C135.665 4.23028 133.771 3.82463 131.444 3.82463H121.722V38.147H119.703V1.98682H131.444C134.053 1.98682 136.238 2.43386 138 3.32793C139.778 4.222 141.116 5.47204 142.013 7.07805C142.911 8.66751 143.359 10.5219 143.359 12.6412C143.359 14.7935 142.911 16.6562 142.013 18.2291C141.116 19.7854 139.786 20.9858 138.025 21.8302C136.263 22.6746 134.07 23.0968 131.444 23.0968Z" fill="black"/>
<path d="M152.284 0V38.147H150.289V0H152.284Z" fill="black"/>
<path d="M177.61 33.2048V19.3218C177.61 17.9145 177.311 16.7059 176.713 15.6959C176.114 14.6859 175.242 13.916 174.095 13.3862C172.949 12.8398 171.544 12.5667 169.883 12.5667C168.337 12.5667 166.949 12.8398 165.72 13.3862C164.506 13.916 163.551 14.6445 162.853 15.5717C162.155 16.4989 161.806 17.5337 161.806 18.6761L159.812 18.6513C159.812 17.6248 160.053 16.6396 160.535 15.6959C161.033 14.7522 161.731 13.916 162.629 13.1875C163.543 12.4425 164.614 11.8547 165.844 11.4242C167.091 10.9937 168.453 10.7785 169.932 10.7785C171.827 10.7785 173.497 11.1014 174.943 11.7471C176.405 12.3762 177.544 13.3283 178.358 14.6031C179.172 15.878 179.579 17.4675 179.579 19.3715V32.6336C179.579 33.5939 179.646 34.5624 179.779 35.5393C179.912 36.5161 180.095 37.3026 180.327 37.8986V38.147H178.159C177.976 37.5178 177.835 36.7479 177.735 35.8373C177.652 34.9267 177.61 34.0492 177.61 33.2048ZM178.258 22.8981L178.308 24.6118H171.727C170.065 24.6118 168.578 24.7691 167.265 25.0836C165.952 25.3982 164.839 25.8452 163.925 26.4247C163.011 27.0042 162.313 27.6913 161.831 28.4861C161.349 29.2808 161.108 30.1749 161.108 31.1683C161.108 32.1948 161.382 33.1385 161.931 33.9995C162.479 34.8605 163.252 35.5476 164.249 36.0608C165.246 36.5575 166.401 36.8059 167.714 36.8059C169.509 36.8059 171.096 36.4996 172.475 35.887C173.871 35.2578 175.043 34.4134 175.99 33.3538C176.937 32.2776 177.627 31.0358 178.059 29.6285L178.931 31.0689C178.649 31.9464 178.208 32.8322 177.61 33.7263C177.012 34.6204 176.239 35.4399 175.292 36.185C174.345 36.9135 173.231 37.5095 171.952 37.9731C170.672 38.4202 169.218 38.6437 167.589 38.6437C165.878 38.6437 164.382 38.3291 163.102 37.7C161.839 37.0542 160.859 36.1767 160.161 35.0674C159.463 33.9415 159.114 32.6584 159.114 31.2179C159.114 29.9762 159.396 28.842 159.961 27.8155C160.526 26.789 161.341 25.9115 162.404 25.183C163.484 24.4379 164.789 23.875 166.318 23.4942C167.863 23.0968 169.6 22.8981 171.528 22.8981H178.258Z" fill="black"/>
<path d="M195.857 35.5144L204.831 11.2752H207L195.234 42.5428C195.018 43.1389 194.744 43.8012 194.411 44.5297C194.079 45.2747 193.647 45.9867 193.115 46.6655C192.583 47.3443 191.894 47.899 191.046 48.3294C190.215 48.7765 189.185 49 187.955 49C187.673 49 187.299 48.9669 186.833 48.9007C186.385 48.851 186.052 48.7848 185.836 48.702L185.811 46.9635C186.044 47.0132 186.351 47.0546 186.734 47.0877C187.116 47.1374 187.382 47.1622 187.531 47.1622C188.628 47.1622 189.542 46.947 190.273 46.5165C191.021 46.1026 191.644 45.5065 192.143 44.7283C192.642 43.9667 193.082 43.0644 193.464 42.0213L195.857 35.5144ZM186.609 11.2752L196.181 35.6883L196.755 37.7248L195.234 38.6685L184.44 11.2752H186.609Z" fill="black"/>
</svg>
