<svg width="223" height="195" viewBox="0 0 223 195" fill="none" xmlns="http://www.w3.org/2000/svg">
<ellipse cx="111.5" cy="97.5" rx="111.5" ry="97.5" fill="white"/>
<path d="M160.5 62H141V54.5C141 52.0062 138.994 50 136.5 50H85.5C83.0063 50 81 52.0062 81 54.5V62H61.5C59.0062 62 57 64.0063 57 66.5V77C57 83.6937 61.2188 90.575 68.6063 95.8812C74.5125 100.138 81.6937 102.837 89.2312 103.7C95.1187 113.469 102 117.5 102 117.5V131H93C86.3813 131 81 134.881 81 141.5V143.75C81 144.988 82.0125 146 83.25 146H138.75C139.988 146 141 144.988 141 143.75V141.5C141 134.881 135.619 131 129 131H120V117.5C120 117.5 126.881 113.469 132.769 103.7C140.325 102.837 147.506 100.138 153.394 95.8812C160.762 90.575 165 83.6937 165 77V66.5C165 64.0063 162.994 62 160.5 62ZM75.6188 86.15C71.0438 82.85 69 79.175 69 77V74H81.0375C81.225 80.1125 82.125 85.475 83.4375 90.1625C80.6063 89.1875 77.9625 87.8375 75.6188 86.15ZM153 77C153 80.0187 149.681 83.7687 146.381 86.15C144.038 87.8375 141.375 89.1875 138.544 90.1625C139.856 85.475 140.756 80.1125 140.944 74H153V77Z" fill="#FAE273"/>
</svg>
